<svg width="28" height="40" viewBox="0 0 28 40" fill="none" xmlns="http://www.w3.org/2000/svg">
<path d="M16.145 33.5523C15.3835 34.5001 14.6677 35.4837 14 36.4998C13.3325 35.4723 12.5975 34.4973 11.825 33.5523C8.63003 29.6148 4.79003 26.1573 2.28503 21.7248C0.995029 19.4448 0.245029 16.9698 0.155029 14.3448C0.155029 7.51231 5.36003 1.53481 12.1393 0.627315C18.935 -0.287685 25.5575 4.07731 27.3568 10.6998C27.6868 11.8848 27.8443 13.1148 27.8443 14.3448C27.6418 20.3973 23.7418 24.9273 19.8868 29.2173C18.605 30.6423 17.3375 32.0606 16.145 33.5523ZM16.7825 21.6873C19.7983 20.5473 21.845 17.5773 21.845 14.3448C21.845 10.9773 19.6108 7.90981 16.4075 6.87481C13.1675 5.83231 9.53003 7.06231 7.58003 9.83731C5.61503 12.6273 5.71253 16.4823 7.81253 19.1673C9.89753 21.8531 13.595 22.8948 16.7825 21.6873Z" fill="#F7901A"/>
<path opacity="0.3" d="M15.2525 37.3174C15.875 36.3799 16.565 35.4274 17.315 34.4899C17.5325 34.2124 17.7575 33.9424 17.9825 33.6724C18.575 33.7249 19.1675 33.7924 19.76 33.8674C21.2683 34.0924 22.8125 34.3474 24.23 34.9324C24.8083 35.1724 25.655 35.5324 25.9258 36.1624C26.66 37.8949 22.4083 38.6674 21.515 38.8399C18.3733 39.4474 15.1783 39.5674 11.9908 39.4549C9.12577 39.3574 5.72077 39.1474 3.14002 37.7749C2.30077 37.3324 1.54252 36.4999 2.44252 35.6899C3.90502 34.3849 6.39577 34.1449 8.24002 33.8674C8.81752 33.7924 9.39502 33.7249 9.97252 33.6799C10.2125 33.9499 10.4375 34.2274 10.6625 34.5049C11.48 35.5024 12.1625 36.4249 12.7408 37.3174C12.8767 37.5266 13.0629 37.6986 13.2822 37.8176C13.5015 37.9367 13.7471 37.999 13.9966 37.999C14.2462 37.999 14.4918 37.9367 14.7111 37.8176C14.9304 37.6986 15.1165 37.5266 15.2525 37.3174Z" fill="#8F530E"/>
</svg>
